<?xml version="1.0" standalone="no"?>
<!DOCTYPE svg PUBLIC "-//W3C//DTD SVG 20010904//EN"
 "http://www.w3.org/TR/2001/REC-SVG-20010904/DTD/svg10.dtd">
<svg version="1.0" xmlns="http://www.w3.org/2000/svg"
 width="3509.000000pt" height="2481.000000pt" viewBox="0 0 3509.000000 2481.000000"
 preserveAspectRatio="xMidYMid meet">

<g transform="translate(0.000000,2481.000000) scale(0.100000,-0.100000)"
fill="#000000" stroke="none">
<path d="M9419 21947 c-19 -12 -44 -42 -57 -67 l-22 -45 2 -1555 3 -1555 23
-37 c27 -43 92 -78 147 -78 53 0 115 33 145 77 l25 37 3 1453 2 1453 7430 0
7430 0 0 -345 0 -345 -6922 -2 c-6417 -3 -6926 -4 -6971 -20 -114 -39 -204
-125 -249 -235 l-23 -58 -3 -6927 -2 -6928 -345 0 -345 0 -2 4328 -3 4327 -23
37 c-27 43 -92 78 -147 78 -55 0 -120 -35 -147 -78 l-23 -37 -3 -4430 -2
-4431 22 -44 c27 -52 60 -78 114 -90 21 -5 233 -10 471 -10 l432 0 3 -357 c3
-344 4 -360 26 -413 44 -109 147 -203 256 -235 45 -13 904 -15 7506 -13 l7455
3 67 32 c112 53 193 154 217 273 9 41 11 1895 9 7491 l-3 7435 -37 76 c-58
116 -148 186 -274 213 -52 11 -148 15 -391 15 l-323 0 0 457 0 456 -25 42
c-14 25 -39 49 -59 59 -31 15 -634 16 -7694 16 l-7659 0 -34 -23z m15131
-8262 l0 -6915 -3188 -2 -3189 -3 -36 -28 c-49 -37 -67 -75 -67 -137 0 -68 24
-116 73 -148 l41 -27 3290 0 c3201 0 3292 1 3329 19 23 11 47 35 62 61 l25 42
0 7026 0 7027 324 0 c304 0 325 -1 347 -19 l24 -19 3 -7374 c1 -4055 0 -7383
-3 -7396 -3 -12 -14 -31 -25 -42 -20 -20 -65 -20 -7408 -20 l-7389 0 -24 26
-24 26 -3 319 -3 319 1163 2 c1143 3 1164 3 1197 23 111 66 115 219 7 299 -27
21 -33 21 -1197 24 l-1169 2 0 6881 c0 6052 2 6883 15 6909 8 15 20 30 27 33
7 3 3115 6 6906 6 l6892 1 0 -6915z"/>
<path d="M11493 18543 c-56 -11 -53 70 -53 -1425 0 -1365 0 -1378 20 -1398 19
-19 33 -20 518 -20 488 0 499 0 520 20 22 20 22 25 22 320 l0 299 24 28 24 28
435 3 c337 2 443 0 466 -10 22 -9 97 -102 275 -340 135 -180 254 -332 265
-337 13 -7 191 -11 525 -11 493 0 507 1 526 20 12 12 20 33 20 56 0 30 -31 77
-239 352 -131 174 -241 324 -243 332 -11 31 13 60 89 111 170 113 330 313 400
500 56 148 68 223 68 409 -1 139 -4 179 -24 254 -50 194 -134 345 -267 485
-183 193 -399 298 -659 321 -106 9 -2664 12 -2712 3z m2499 -844 c24 -13 61
-94 77 -168 24 -114 -25 -219 -128 -273 l-53 -28 -660 0 -659 0 -24 25 c-25
24 -25 26 -25 213 0 176 1 191 21 216 l20 26 705 0 c488 0 712 -3 726 -11z"/>
<path d="M20665 18539 c-779 -26 -1280 -199 -1503 -522 -133 -192 -170 -496
-84 -689 102 -228 399 -386 877 -467 235 -40 460 -61 955 -86 513 -26 656 -49
723 -113 47 -44 32 -109 -39 -172 -107 -94 -328 -140 -674 -140 -380 0 -580
59 -713 211 l-47 54 -540 0 c-505 0 -540 -1 -557 -18 -55 -55 45 -346 175
-509 179 -224 514 -365 1007 -424 187 -22 872 -31 1098 -15 978 71 1450 383
1449 961 0 89 -5 130 -21 181 -81 254 -347 421 -819 513 -250 49 -510 74
-1032 101 -459 23 -615 43 -697 89 -125 70 -38 211 172 279 126 41 231 52 510
52 241 0 281 -3 370 -22 143 -32 247 -86 334 -174 l70 -70 536 3 c523 3 537 3
552 23 34 46 -21 259 -104 400 -85 146 -249 289 -419 366 -241 110 -587 173
-1004 184 -96 3 -218 7 -270 8 -52 2 -189 0 -305 -4z"/>
<path d="M15516 18525 c-8 -9 -18 -30 -21 -48 -3 -18 -4 -640 -3 -1383 3
-1313 4 -1353 22 -1373 l19 -21 1584 0 c1570 0 1583 0 1603 20 19 19 20 33 20
345 0 321 0 324 -22 345 -22 20 -29 20 -1054 20 -1028 0 -1031 0 -1058 21 -26
20 -26 21 -26 158 0 131 1 139 23 159 l23 22 1031 0 c1027 0 1030 0 1057 21
l26 20 0 290 c0 276 -1 290 -20 309 -20 20 -33 20 -1054 20 -1030 0 -1033 0
-1060 21 -26 20 -26 22 -26 155 0 75 4 144 10 154 5 10 24 23 41 29 23 8 334
11 1055 11 l1023 0 15 22 c14 19 16 69 16 338 0 269 -2 319 -16 338 l-15 22
-1589 0 c-1414 0 -1590 -2 -1604 -15z"/>
<path d="M23115 16419 c-45 -25 -45 -29 -45 -346 l0 -304 25 -24 c24 -25 25
-25 228 -25 192 0 206 1 231 21 l26 20 0 313 c0 305 -1 313 -21 332 -19 17
-40 19 -223 22 -135 1 -208 -2 -221 -9z"/>
<path d="M11460 14750 c-20 -20 -20 -33 -20 -1430 0 -1397 0 -1410 20 -1430
19 -19 33 -20 489 -20 l470 0 20 26 c21 26 21 33 21 799 l0 772 23 21 c55 52
22 89 721 -792 355 -447 653 -816 662 -820 22 -9 1097 -7 1110 2 34 22 34 38
34 1445 l0 1394 -21 27 -20 26 -470 0 c-456 0 -470 -1 -489 -20 -20 -20 -20
-33 -20 -675 l0 -656 -25 -24 c-28 -29 -55 -32 -83 -7 -11 9 -247 321 -524
693 -278 372 -513 679 -522 682 -10 4 -319 7 -687 7 -656 0 -669 0 -689 -20z"/>
<path d="M16883 14760 c-809 -60 -1278 -346 -1446 -885 -53 -170 -62 -254 -62
-590 0 -349 9 -428 71 -615 162 -488 570 -757 1285 -847 187 -23 661 -23 848
0 803 101 1221 428 1338 1047 26 138 26 681 0 820 -117 627 -537 961 -1327
1055 -159 19 -548 27 -707 15z m482 -901 c330 -41 504 -172 546 -413 18 -104
7 -325 -20 -401 -84 -236 -316 -345 -736 -345 -295 0 -507 58 -623 169 -65 62
-98 122 -123 221 -29 113 -23 342 10 435 84 236 302 340 721 344 74 0 176 -4
225 -10z"/>
<path d="M19249 14751 l-24 -19 -3 -729 c-3 -743 4 -990 33 -1142 100 -520
440 -845 1030 -984 500 -118 1193 -96 1633 52 495 165 764 471 855 975 21 118
22 140 22 974 l0 854 -24 19 c-22 18 -45 19 -486 19 -441 0 -464 -1 -486 -19
l-24 -19 -5 -809 -5 -808 -23 -56 c-82 -204 -244 -299 -561 -330 -66 -7 -174
-9 -251 -6 -441 20 -641 158 -680 469 -6 50 -10 366 -10 810 0 715 0 728 -20
748 -19 19 -33 20 -484 20 -442 0 -465 -1 -487 -19z"/>
<path d="M14060 6748 c-63 -33 -83 -66 -87 -141 -5 -77 22 -130 82 -161 39
-21 51 -21 630 -21 671 0 642 -3 692 82 21 37 25 53 21 102 -5 70 -34 116 -92
142 -38 17 -77 19 -621 19 l-581 0 -44 -22z"/>
<path d="M24272 4496 c-45 -63 -82 -117 -82 -120 0 -3 43 -6 96 -6 l97 0 41
37 c22 20 81 74 130 120 l89 83 -145 0 -144 0 -82 -114z"/>
<path d="M16981 4299 c-77 -13 -173 -62 -216 -110 -55 -61 -78 -120 -83 -215
-6 -109 15 -172 78 -234 51 -52 100 -74 266 -119 113 -31 154 -52 154 -80 0
-81 -189 -79 -352 3 l-66 33 -47 -121 c-26 -66 -49 -126 -52 -133 -7 -18 121
-73 220 -94 226 -46 411 -8 516 107 62 68 81 123 81 233 0 184 -71 253 -333
320 -65 17 -126 35 -137 41 -31 16 -35 48 -10 75 45 48 168 41 289 -15 35 -17
65 -29 66 -28 2 2 17 44 35 93 18 50 38 107 46 128 l13 37 -47 24 c-27 13 -75
32 -108 40 -73 20 -241 28 -313 15z"/>
<path d="M22774 4295 c-162 -35 -287 -146 -351 -312 -35 -90 -44 -283 -19
-383 60 -240 248 -390 488 -390 132 0 258 45 337 121 85 82 86 75 -20 189 -51
55 -95 100 -98 100 -2 0 -19 -18 -38 -39 -65 -76 -172 -103 -251 -62 -83 43
-122 117 -121 236 0 126 42 209 123 246 85 39 174 15 250 -65 l38 -41 94 100
c52 55 94 103 94 108 0 4 -23 32 -50 61 -114 120 -296 170 -476 131z"/>
<path d="M24230 4303 c-51 -8 -147 -47 -198 -80 -180 -120 -265 -382 -202
-627 26 -104 63 -169 135 -242 237 -240 667 -171 809 130 73 154 83 332 26
493 -56 161 -194 284 -357 318 -64 14 -157 17 -213 8z m168 -302 c82 -42 125
-125 126 -241 0 -84 -24 -153 -72 -204 -88 -94 -229 -68 -297 55 -27 49 -30
62 -30 149 0 107 16 148 77 207 58 56 129 68 196 34z"/>
<path d="M9736 4271 c-4 -5 -91 -234 -195 -508 -104 -274 -192 -506 -196 -515
-7 -17 4 -18 152 -18 l159 0 30 93 30 92 171 3 171 2 32 -95 32 -95 160 0
c124 0 159 3 156 13 -3 6 -92 243 -198 525 l-194 512 -152 0 c-84 0 -155 -4
-158 -9z m198 -476 c20 -61 36 -113 36 -118 0 -4 -36 -7 -80 -7 -56 0 -80 4
-80 12 0 25 75 237 81 230 4 -4 23 -57 43 -117z"/>
<path d="M10490 3755 l0 -525 155 0 155 0 0 135 0 135 38 0 38 0 79 -135 79
-135 164 0 c142 0 163 2 158 15 -3 8 -44 80 -91 160 l-86 146 50 47 c75 71
104 142 109 268 8 208 -74 340 -247 394 -57 18 -91 20 -332 20 l-269 0 0 -525z
m511 217 c24 -27 29 -41 29 -83 0 -45 -4 -55 -34 -85 -33 -33 -36 -34 -115
-34 l-81 0 0 121 0 121 86 -3 c82 -4 87 -5 115 -37z"/>
<path d="M11380 4145 l0 -135 130 0 130 0 0 -390 0 -390 155 0 155 0 2 388 3
387 133 3 132 3 0 134 0 135 -420 0 -420 0 0 -135z"/>
<path d="M12300 3755 l0 -525 375 0 375 0 0 135 0 135 -225 0 -225 0 0 70 0
70 190 0 190 0 0 125 0 125 -190 0 -190 0 0 65 0 65 220 0 220 0 0 130 0 130
-370 0 -370 0 0 -525z"/>
<path d="M13460 4273 c0 -3 77 -154 170 -335 l170 -329 0 -189 0 -190 150 0
150 0 0 188 1 187 173 338 173 337 -153 0 c-136 0 -153 -2 -158 -17 -4 -10
-44 -90 -90 -177 l-84 -159 -88 174 -89 174 -162 3 c-90 1 -163 -1 -163 -5z"/>
<path d="M14880 3756 l0 -526 150 0 149 0 3 133 3 132 37 3 c42 4 40 6 142
-170 l57 -98 165 0 c90 0 164 2 164 4 0 3 -42 76 -94 163 l-95 158 27 20 c84
63 132 158 139 279 12 187 -58 320 -206 390 l-66 31 -287 3 -288 3 0 -525z
m480 239 c69 -36 80 -144 21 -197 -29 -26 -37 -28 -116 -28 l-85 0 0 120 0
120 75 0 c48 0 87 -6 105 -15z"/>
<path d="M15850 3755 l0 -525 375 0 375 0 0 135 0 135 -225 0 -225 0 0 70 0
70 190 0 190 0 0 125 0 125 -190 0 -190 0 0 65 0 65 220 0 220 0 0 130 0 130
-370 0 -370 0 0 -525z"/>
<path d="M17490 4145 l0 -135 135 0 135 0 0 -390 0 -390 155 0 155 0 0 390 0
390 130 0 130 0 0 135 0 135 -420 0 -420 0 0 -135z"/>
<path d="M18470 3768 c-106 -282 -195 -519 -198 -526 -3 -10 29 -12 153 -10
l158 3 31 90 31 90 170 0 170 0 31 -90 31 -90 162 -3 c88 -1 161 -1 161 0 0 2
-89 237 -198 523 l-197 520 -156 3 -155 2 -194 -512z m386 40 c20 -62 39 -119
42 -125 3 -10 -16 -13 -75 -13 -44 0 -82 3 -85 6 -6 5 70 244 77 244 2 0 20
-51 41 -112z"/>
<path d="M19390 3958 c0 -354 7 -423 50 -515 76 -164 226 -244 433 -230 229
14 366 149 397 390 5 40 10 208 10 375 l0 302 -155 0 -155 0 0 -322 c0 -189
-4 -338 -10 -360 -16 -55 -70 -98 -124 -98 -53 0 -91 27 -117 84 -17 37 -19
71 -19 369 l0 327 -155 0 -155 0 0 -322z"/>
<path d="M20420 3756 l0 -526 150 0 149 0 3 133 3 132 40 0 40 0 79 -133 79
-132 320 2 320 3 31 90 31 90 170 0 170 0 31 -90 31 -90 161 -3 162 -2 -21 52
c-11 29 -100 265 -198 523 l-178 470 -156 3 c-118 2 -156 -1 -160 -10 -2 -7
-89 -236 -192 -508 -103 -272 -190 -499 -194 -503 -4 -4 -48 62 -98 146 l-90
154 33 22 c126 86 173 330 97 494 -39 81 -89 131 -172 171 l-66 31 -287 3
-288 3 0 -525z m480 239 c69 -36 80 -144 21 -197 -29 -26 -37 -28 -116 -28
l-85 0 0 120 0 120 75 0 c48 0 87 -6 105 -15z m979 -198 c22 -63 37 -118 33
-121 -8 -9 -162 -7 -162 2 0 13 83 242 87 239 2 -2 21 -56 42 -120z"/>
<path d="M23390 3755 l0 -525 155 0 155 0 0 525 0 525 -155 0 -155 0 0 -525z"/>
<path d="M24950 3755 l0 -525 150 0 150 0 0 237 0 236 171 -236 171 -237 129
0 129 0 0 525 0 525 -150 0 -150 0 -2 -232 -3 -233 -169 233 -168 232 -129 0
-129 0 0 -525z"/>
</g>
</svg>
